<svg xmlns="http://www.w3.org/2000/svg" viewBox="0 0 512 512" role="img" aria-labelledby="title desc">
  <title id="title">Cocktailglas Icon</title>
  <desc id="desc">Illustration eines Cocktailglases mit Orangenscheibe</desc>
  <g fill="var(--accent)">
    <path d="M80 80h352L256 272 80 80Z"/>
    <path d="M318 80 352 40l18 14-34 40h-18l34-40z"/>
    <path d="M256 272c-2 0-4-.8-5.5-2.3L133 142h246L262 269.7c-1.5 1.5-3.5 2.3-5.7 2.3Zm-70-114c17.6 25.9 34 38.9 66 60 35-23.6 58.8-42.1 78-60h-144Z"/>
    <path d="M238 288h36v128h-36z"/>
    <path d="M176 432h160l-44 36h-72l-44-36Z"/>
    <circle cx="376" cy="136" r="70"/>
    <circle cx="376" cy="136" r="52" fill="none" stroke="#000" stroke-opacity="0"/>
    <path d="M376 90v46l32-26c-9-11-21-18-32-20Zm0 92v-46l-32 26c9 11 21 18 32 20Zm-46-46h46l-26-32c-11 9-18 21-20 32Zm92 0h-46l26 32c11-9 18-21 20-32Z" fill="#000" fill-opacity="0"/>
    <path d="M376 82c-30 0-54 24-54 54s24 54 54 54 54-24 54-54-24-54-54-54Zm0 18c8 0 15 2 22 6l-22 18V100Zm0 36 22 18c-7 4-14 6-22 6s-15-2-22-6l22-18Zm0 0-22-18c7-4 14-6 22-6s15 2 22 6l-22 18Zm0 18v24c-18 0-34-10-42-24h42Zm18 24v-24h24c-8 14-24 24-42 24Zm0-24 22-18c4 7 6 14 6 22s-2 15-6 22l-22-18Zm-36 0-22 18c-4-7-6-14-6-22s2-15 6-22l22 18Zm-24-36c0-18 10-34 24-42v42h-24Zm24 60v42c-14-8-24-24-24-42h24Zm18 42v-42h24c-8 14-24 24-42 24Zm0-60 22-18c4 7 6 14 6 22s-2 15-6 22l-22-18Z"/>
  </g>
</svg>
