<svg xmlns="http://www.w3.org/2000/svg" viewBox="0 0 522 720">
  <path d="M 100.0,163.0 105.0,171.0 105.0,174.0 117.0,189.0 118.0,193.0 134.0,217.0 143.0,228.0 187.0,295.0 191.0,298.0 192.0,303.0 218.0,340.0 222.0,339.0 246.0,301.0 255.0,290.0 258.0,283.0 267.0,272.0 268.0,268.0 282.0,250.0 283.0,246.0 288.0,241.0 338.0,166.0 337.0,162.0 Z" fill="rgb(211,139,69)" fill-rule="evenodd" />
  <path d="M 37.0,120.0 34.0,122.0 35.0,128.0 43.0,138.0 50.0,151.0 54.0,154.0 55.0,159.0 86.0,204.0 102.0,231.0 106.0,234.0 107.0,239.0 126.0,266.0 138.0,287.0 142.0,290.0 142.0,293.0 157.0,314.0 160.0,321.0 164.0,324.0 169.0,335.0 174.0,340.0 174.0,343.0 197.0,380.0 203.0,399.0 207.0,443.0 208.0,572.0 206.0,575.0 206.0,589.0 201.0,625.0 195.0,639.0 195.0,643.0 182.0,654.0 169.0,660.0 163.0,660.0 132.0,668.0 128.0,671.0 123.0,671.0 117.0,676.0 113.0,677.0 110.0,680.0 110.0,684.0 112.0,686.0 327.0,686.0 329.0,681.0 318.0,672.0 259.0,656.0 253.0,652.0 245.0,644.0 241.0,637.0 237.0,621.0 235.0,620.0 235.0,607.0 233.0,605.0 234.0,600.0 232.0,596.0 233.0,589.0 230.0,537.0 231.0,449.0 234.0,409.0 239.0,386.0 249.0,365.0 260.0,350.0 264.0,340.0 269.0,336.0 272.0,329.0 299.0,289.0 307.0,274.0 312.0,269.0 316.0,260.0 332.0,238.0 332.0,234.0 337.0,230.0 348.0,213.0 347.0,210.0 352.0,207.0 353.0,202.0 357.0,199.0 362.0,189.0 378.0,167.0 378.0,164.0 402.0,130.0 403.0,122.0 401.0,120.0 Z M 64.0,137.0 64.0,134.0 67.0,131.0 368.0,131.0 369.0,133.0 373.0,132.0 375.0,134.0 364.0,152.0 363.0,157.0 359.0,160.0 358.0,164.0 351.0,173.0 349.0,180.0 342.0,188.0 315.0,235.0 300.0,257.0 300.0,260.0 287.0,278.0 285.0,285.0 281.0,288.0 237.0,363.0 220.0,388.0 216.0,387.0 187.0,337.0 181.0,331.0 181.0,327.0 168.0,308.0 167.0,304.0 161.0,300.0 162.0,296.0 141.0,264.0 120.0,227.0 114.0,222.0 114.0,217.0 106.0,207.0 103.0,199.0 100.0,197.0 97.0,189.0 90.0,180.0 78.0,158.0 74.0,155.0 74.0,152.0 Z" fill="rgb(211,139,69)" fill-rule="evenodd" />
  <path d="M 404.0,43.0 397.0,43.0 395.0,45.0 371.0,45.0 360.0,49.0 360.0,51.0 365.0,51.0 373.0,60.0 388.0,85.0 389.0,94.0 382.0,105.0 370.0,107.0 364.0,104.0 348.0,81.0 343.0,71.0 343.0,61.0 340.0,61.0 325.0,75.0 317.0,87.0 308.0,111.0 308.0,117.0 312.0,117.0 322.0,109.0 344.0,109.0 347.0,111.0 360.0,111.0 368.0,117.0 401.0,116.0 405.0,117.0 410.0,122.0 407.0,131.0 398.0,143.0 398.0,148.0 393.0,151.0 395.0,164.0 383.0,195.0 378.0,201.0 371.0,205.0 364.0,205.0 360.0,203.0 359.0,208.0 372.0,210.0 383.0,214.0 404.0,213.0 420.0,210.0 443.0,198.0 443.0,195.0 429.0,189.0 414.0,175.0 408.0,173.0 408.0,170.0 404.0,164.0 404.0,155.0 411.0,146.0 426.0,145.0 440.0,157.0 443.0,157.0 445.0,161.0 454.0,167.0 458.0,175.0 457.0,183.0 459.0,183.0 473.0,158.0 477.0,143.0 476.0,138.0 478.0,136.0 478.0,119.0 472.0,96.0 467.0,86.0 454.0,69.0 452.0,69.0 450.0,80.0 430.0,101.0 422.0,107.0 410.0,107.0 402.0,100.0 401.0,87.0 403.0,83.0 426.0,59.0 434.0,56.0 433.0,53.0 425.0,51.0 420.0,47.0 410.0,46.0 Z M 475.0,116.0 474.0,126.0 469.0,133.0 454.0,136.0 452.0,138.0 447.0,137.0 443.0,140.0 439.0,139.0 436.0,143.0 435.0,140.0 423.0,138.0 417.0,132.0 415.0,126.0 417.0,116.0 429.0,107.0 459.0,104.0 466.0,105.0 Z" fill="rgb(211,139,69)" fill-rule="evenodd" />
  <path d="M 386.0,30.0 371.0,32.0 371.0,36.0 368.0,34.0 363.0,34.0 337.0,46.0 322.0,58.0 310.0,72.0 299.0,92.0 294.0,109.0 294.0,116.0 303.0,116.0 308.0,95.0 315.0,82.0 327.0,66.0 339.0,55.0 358.0,45.0 359.0,42.0 362.0,44.0 371.0,40.0 404.0,39.0 424.0,43.0 451.0,59.0 458.0,66.0 472.0,85.0 478.0,100.0 482.0,118.0 482.0,138.0 479.0,156.0 474.0,167.0 475.0,170.0 471.0,171.0 462.0,188.0 459.0,189.0 453.0,196.0 441.0,205.0 425.0,213.0 403.0,219.0 392.0,218.0 389.0,221.0 388.0,219.0 365.0,215.0 363.0,213.0 357.0,214.0 354.0,212.0 350.0,217.0 350.0,220.0 367.0,226.0 397.0,229.0 399.0,227.0 412.0,227.0 423.0,224.0 441.0,216.0 454.0,207.0 469.0,192.0 479.0,177.0 486.0,160.0 490.0,144.0 491.0,126.0 489.0,124.0 489.0,110.0 482.0,89.0 477.0,79.0 473.0,76.0 472.0,71.0 455.0,53.0 444.0,45.0 428.0,37.0 412.0,32.0 Z" fill="rgb(211,139,69)" fill-rule="evenodd" />
  <path d="M 391.0,154.0 387.0,155.0 359.0,200.0 364.0,202.0 372.0,202.0 381.0,195.0 393.0,165.0 Z" fill="rgb(211,139,69)" fill-rule="evenodd" />
  <path d="M 408.0,152.0 406.0,156.0 406.0,164.0 408.0,168.0 434.0,190.0 445.0,192.0 453.0,187.0 456.0,180.0 454.0,171.0 425.0,147.0 417.0,146.0 Z" fill="rgb(211,139,69)" fill-rule="evenodd" />
  <path d="M 66.0,134.0 76.0,153.0 218.0,386.0 220.0,386.0 372.0,136.0 372.0,134.0 Z M 96.0,162.0 341.0,161.0 342.0,163.0 221.0,343.0 218.0,344.0 Z" fill="rgb(211,139,69)" fill-rule="evenodd" />
  <path d="M 304.0,117.0 304.0,119.0 307.0,119.0 307.0,117.0 Z" fill="rgb(211,139,69)" fill-rule="evenodd" />
  <path d="M 314.0,117.0 314.0,119.0 365.0,119.0 362.0,114.0 355.0,112.0 325.0,111.0 Z" fill="rgb(211,139,69)" fill-rule="evenodd" />
  <path d="M 473.0,116.0 467.0,108.0 462.0,106.0 428.0,110.0 419.0,116.0 417.0,127.0 422.0,135.0 429.0,138.0 465.0,133.0 471.0,128.0 473.0,124.0 Z" fill="rgb(211,139,69)" fill-rule="evenodd" />
  <path d="M 446.0,58.0 441.0,56.0 440.0,58.0 430.0,59.0 406.0,82.0 403.0,87.0 403.0,97.0 409.0,104.0 418.0,106.0 425.0,103.0 448.0,80.0 450.0,76.0 449.0,61.0 Z" fill="rgb(211,139,69)" fill-rule="evenodd" />
  <path d="M 350.0,55.0 345.0,61.0 345.0,72.0 361.0,98.0 366.0,103.0 371.0,105.0 381.0,103.0 387.0,95.0 387.0,87.0 372.0,62.0 362.0,53.0 354.0,53.0 Z" fill="rgb(211,139,69)" fill-rule="evenodd" />
</svg>